<svg xmlns="http://www.w3.org/2000/svg" width="27.625" height="32" viewBox="0 0 27.625 32">
  <path id="headset_mic_24dp_75FB4C_FILL0_wght300_GRAD0_opsz24" d="M153.813-828v-2.437h10.875a.487.487,0,0,0,.36-.141.486.486,0,0,0,.141-.359v-1.437h-5.75v-11.5h5.75v-2.312a10.961,10.961,0,0,0-3.331-8.043,10.962,10.962,0,0,0-8.044-3.332,10.961,10.961,0,0,0-8.044,3.332,10.96,10.96,0,0,0-3.331,8.043v2.313h5.75v11.5h-5.25a2.833,2.833,0,0,1-2.084-.853,2.838,2.838,0,0,1-.853-2.085v-10.875a13.357,13.357,0,0,1,1.088-5.362,14.029,14.029,0,0,1,2.969-4.394,14.023,14.023,0,0,1,4.394-2.969A13.361,13.361,0,0,1,153.813-860a13.361,13.361,0,0,1,5.363,1.088,14.023,14.023,0,0,1,4.394,2.969,14.029,14.029,0,0,1,2.969,4.394,13.353,13.353,0,0,1,1.088,5.362v15.25a2.837,2.837,0,0,1-.853,2.085,2.836,2.836,0,0,1-2.084.853Zm-10.875-6.812h2.813v-6.625h-3.313v6.125a.486.486,0,0,0,.141.359A.487.487,0,0,0,142.938-834.813Zm18.937,0h3.313v-6.625h-3.313Zm-18.937-6.625h0Zm18.937,0h0Z" transform="translate(-140 860.001)" fill="#bffe2f"/>
</svg>
