<?xml version="1.0" encoding="UTF-8"?>
<svg id="Layer_1" xmlns="http://www.w3.org/2000/svg" version="1.1" viewBox="0 0 45 31.8">
  <!-- Generator: Adobe Illustrator 29.5.1, SVG Export Plug-In . SVG Version: 2.1.0 Build 141)  -->
  <defs>
    <style>
      .st0 {
        fill: #0428ce;
      }
    </style>
  </defs>
  <path id="local_shipping_24dp_75FB4C_FILL0_wght300_GRAD0_opsz24" class="st0" d="M9.5,31.8c-1.6,0-3.1-.6-4.2-1.7-1.1-1.1-1.8-2.6-1.7-4.2H0V3.8c0-1,.4-2,1.1-2.7C1.8.4,2.8,0,3.8,0h28.8v8h5.6l6.8,9.1v8.7h-3.8c0,1.6-.6,3.1-1.7,4.2-1.1,1.1-2.6,1.8-4.2,1.7-1.6,0-3.1-.6-4.2-1.7-1.1-1.1-1.8-2.6-1.7-4.2h-13.9c0,1.6-.6,3.1-1.7,4.2-1.1,1.1-2.6,1.8-4.2,1.7ZM9.5,28.6c.7,0,1.4-.3,2-.8.5-.5.8-1.2.8-2,0-.7-.3-1.4-.8-2-.5-.5-1.2-.8-2-.8-.7,0-1.4.3-2,.8-.5.5-.8,1.2-.8,2,0,.7.3,1.4.8,2,.5.5,1.2.8,2,.8h0ZM3.2,22.7h1.5c.5-.8,1.1-1.5,1.9-2,.9-.5,1.9-.8,2.9-.8,1,0,2,.3,2.8.8.8.5,1.5,1.2,2,2h15.1V3.2H3.8c-.2,0-.3,0-.4.2-.1.1-.2.3-.2.4v18.9ZM35.2,28.6c.7,0,1.4-.3,2-.8.5-.5.8-1.2.8-2,0-.7-.3-1.4-.8-2-.5-.5-1.2-.8-2-.8-.7,0-1.4.3-2,.8-.5.5-.8,1.2-.8,2,0,.7.3,1.4.8,2,.5.5,1.2.8,2,.8h0ZM32.6,18.5h9.5l-5.5-7.3h-4v7.3Z"/>
</svg>