<svg xmlns="http://www.w3.org/2000/svg" width="29.695" height="29.695" viewBox="0 0 29.695 29.695">
  <path id="icons8-whatsapp" d="M16.848,2A14.786,14.786,0,0,0,3.927,24.084l-1.9,6.792a.646.646,0,0,0,.777.8l7.082-1.755A14.833,14.833,0,1,0,16.848,2Zm0,1.291a13.557,13.557,0,1,1-6.609,25.392.646.646,0,0,0-.47-.063l-6.2,1.537,1.663-5.934a.646.646,0,0,0-.064-.5A13.554,13.554,0,0,1,16.848,3.291Zm-5.4,5.81a2.053,2.053,0,0,0-1.49.677,5.028,5.028,0,0,0-1.507,3.58,7.612,7.612,0,0,0,1.687,4.283h0c-.017-.023.231.337.562.768a20.445,20.445,0,0,0,1.377,1.61,14.949,14.949,0,0,0,4.833,3.509,23.005,23.005,0,0,0,2.233.815,5.951,5.951,0,0,0,2.689.171,4.538,4.538,0,0,0,1.692-.7,3.137,3.137,0,0,0,1.393-1.51,5.326,5.326,0,0,0,.3-1.329,3.047,3.047,0,0,0,.006-.508.885.885,0,0,0-.142-.507c-.3-.493-.641-.506-1-.682-.2-.1-.759-.372-1.323-.641s-1.05-.506-1.35-.613a1.521,1.521,0,0,0-.755-.129,1.285,1.285,0,0,0-.856.564c-.182.27-.915,1.135-1.139,1.389,0,0,.016.007-.072-.037-.276-.137-.614-.253-1.115-.517a9.221,9.221,0,0,1-1.811-1.257h0a10.66,10.66,0,0,1-1.958-2.4c.015-.018,0,0,.03-.028h0c.23-.227.434-.5.606-.7a3.219,3.219,0,0,0,.469-.762,1.427,1.427,0,0,0-.032-1.238h0c.009.019-.073-.163-.161-.372s-.2-.482-.323-.772c-.242-.58-.512-1.23-.672-1.611h0a1.68,1.68,0,0,0-.779-.928,1.248,1.248,0,0,0-.642-.112h0C11.974,9.1,11.712,9.1,11.453,9.1Zm0,1.291c.249,0,.494,0,.7.013s.2.011.158-.008.015-.026.135.26c.157.373.428,1.026.671,1.608.121.291.235.564.325.778s.14.334.2.448h0c.056.11.051.04.032.078a1.882,1.882,0,0,1-.293.5c-.21.242-.424.511-.537.623a1.389,1.389,0,0,0-.39.546,1.249,1.249,0,0,0,.12,1.01,11.813,11.813,0,0,0,2.249,2.764,10.555,10.555,0,0,0,2.061,1.431c.573.3,1.04.479,1.145.531a1.45,1.45,0,0,0,.835.18,1.257,1.257,0,0,0,.76-.425h0c.23-.261.915-1.043,1.243-1.524.014,0,.009,0,.119.04h0c.05.018.674.3,1.231.562s1.121.541,1.3.632c.265.131.39.216.422.217a1.518,1.518,0,0,1,0,.212,4.109,4.109,0,0,1-.231,1,2.434,2.434,0,0,1-.869.859,4.015,4.015,0,0,1-1.191.512,4.628,4.628,0,0,1-2.113-.126,21.576,21.576,0,0,1-2.113-.77,13.8,13.8,0,0,1-4.4-3.21,19.183,19.183,0,0,1-1.29-1.509c-.309-.4-.445-.612-.557-.76h0a6.974,6.974,0,0,1-1.425-3.5,3.4,3.4,0,0,1,1.162-2.7A.765.765,0,0,1,11.453,10.392Z" transform="translate(-2 -2)" fill="#0428cf"/>
</svg>
