<svg xmlns="http://www.w3.org/2000/svg" width="32" height="32" viewBox="0 0 32 32">
  <path id="login_24dp_75FB4C_FILL0_wght300_GRAD0_opsz24" d="M155.982-788v-2.824H168.6A.552.552,0,0,0,169-791a.552.552,0,0,0,.181-.4V-816.6A.553.553,0,0,0,169-817a.553.553,0,0,0-.4-.181H155.982V-820H168.6a3.285,3.285,0,0,1,2.415.988A3.284,3.284,0,0,1,172-816.6V-791.4a3.285,3.285,0,0,1-.988,2.415A3.284,3.284,0,0,1,168.6-788Zm-2.552-7.964-1.955-2.042,4.583-4.583H140v-2.823h16.058l-4.583-4.583,1.955-2.042L161.466-804Z" transform="translate(-140 820)" fill="#bffe2f"/>
</svg>
