<svg xmlns="http://www.w3.org/2000/svg" width="24.009" height="24.009" viewBox="0 0 24.009 24.009">
  <g id="Group_2199" data-name="Group 2199" transform="translate(20 0)">
    <path id="Path_3687" data-name="Path 3687" d="M12,2.163c3.205,0,3.585.012,4.851.07a6.645,6.645,0,0,1,2.229.413,3.724,3.724,0,0,1,1.38.9,3.712,3.712,0,0,1,.9,1.38,6.645,6.645,0,0,1,.413,2.229c.058,1.266.07,1.645.07,4.851s-.012,3.585-.07,4.851a6.645,6.645,0,0,1-.413,2.229,3.972,3.972,0,0,1-2.278,2.278,6.645,6.645,0,0,1-2.229.413c-1.266.058-1.645.07-4.851.07s-3.585-.012-4.851-.07a6.645,6.645,0,0,1-2.229-.413,3.724,3.724,0,0,1-1.38-.9,3.712,3.712,0,0,1-.9-1.38,6.645,6.645,0,0,1-.413-2.229c-.058-1.266-.07-1.645-.07-4.851s.012-3.585.07-4.851a6.645,6.645,0,0,1,.413-2.229,3.724,3.724,0,0,1,.9-1.38,3.712,3.712,0,0,1,1.38-.9,6.645,6.645,0,0,1,2.229-.413C8.419,2.175,8.8,2.163,12,2.163M12,0C8.744,0,8.335.014,7.055.072A8.806,8.806,0,0,0,4.141.63,5.879,5.879,0,0,0,2.015,2.015,5.88,5.88,0,0,0,.63,4.141,8.806,8.806,0,0,0,.072,7.055C.014,8.335,0,8.744,0,12s.014,3.669.072,4.949A8.806,8.806,0,0,0,.63,19.867a5.879,5.879,0,0,0,1.385,2.126,5.883,5.883,0,0,0,2.126,1.385,8.8,8.8,0,0,0,2.914.558c1.28.059,1.689.072,4.949.072s3.669-.014,4.949-.072a8.8,8.8,0,0,0,2.914-.558,6.14,6.14,0,0,0,3.511-3.511,8.8,8.8,0,0,0,.558-2.914c.059-1.28.072-1.689.072-4.949S24,8.335,23.937,7.055a8.8,8.8,0,0,0-.558-2.914,5.879,5.879,0,0,0-1.385-2.126A5.883,5.883,0,0,0,19.868.63,8.825,8.825,0,0,0,16.954.072C15.673.014,15.264,0,12,0Z" transform="translate(-20)" fill="#fff"/>
    <path id="Path_3688" data-name="Path 3688" d="M128.02,122.56a5.46,5.46,0,1,0,5.46,5.46A5.46,5.46,0,0,0,128.02,122.56Zm0,9a3.544,3.544,0,1,1,3.544-3.544A3.544,3.544,0,0,1,128.02,131.565Z" transform="translate(-136.016 -116.016)" fill="#fff"/>
    <circle id="Ellipse_54" data-name="Ellipse 54" cx="1.614" cy="1.614" r="1.614" transform="translate(-3.308 4.087)" fill="#fff"/>
  </g>
</svg>
