<svg xmlns="http://www.w3.org/2000/svg" width="31.115" height="32" viewBox="0 0 31.115 32">
  <path id="shopping_cart_24dp_75FB4C_FILL0_wght300_GRAD0_opsz24" d="M69.37-838a2.8,2.8,0,0,1-2.054-.847,2.8,2.8,0,0,1-.846-2.054,2.8,2.8,0,0,1,.846-2.055,2.8,2.8,0,0,1,2.054-.846,2.8,2.8,0,0,1,2.054.846,2.8,2.8,0,0,1,.846,2.055,2.8,2.8,0,0,1-.846,2.054A2.8,2.8,0,0,1,69.37-838Zm16.064,0a2.8,2.8,0,0,1-2.054-.847,2.8,2.8,0,0,1-.846-2.054,2.8,2.8,0,0,1,.846-2.055,2.8,2.8,0,0,1,2.054-.846,2.8,2.8,0,0,1,2.054.846,2.8,2.8,0,0,1,.846,2.055,2.8,2.8,0,0,1-.846,2.054A2.8,2.8,0,0,1,85.434-838ZM67.483-864.2l4.2,8.8h11.3a.463.463,0,0,0,.255-.072.626.626,0,0,0,.191-.2l4.446-8.08a.3.3,0,0,0,.016-.311.289.289,0,0,0-.271-.135Zm-1.192-2.486H89.3a1.687,1.687,0,0,1,1.538.865,1.7,1.7,0,0,1,.05,1.768l-5.31,9.619a3.005,3.005,0,0,1-1.078,1.117,2.821,2.821,0,0,1-1.471.4H70.939l-1.919,3.506a.378.378,0,0,0-.008.415.384.384,0,0,0,.358.223H88.334v2.486H69.37a2.705,2.705,0,0,1-2.491-1.43,2.735,2.735,0,0,1-.059-2.854l2.365-4.251-6.03-12.692H60V-870h4.717ZM71.684-855.4h0Z" transform="translate(-60 870)" fill="#bffe2f"/>
</svg>
