<svg xmlns="http://www.w3.org/2000/svg" width="45" height="31.801" viewBox="0 0 45 31.801">
  <path id="local_shipping_24dp_75FB4C_FILL0_wght300_GRAD0_opsz24" d="M63.349-748.2a5.709,5.709,0,0,1-4.2-1.73,5.725,5.725,0,0,1-1.726-4.2H53.85v-22.053a3.685,3.685,0,0,1,1.109-2.709A3.685,3.685,0,0,1,57.667-780H86.422v8.042h5.6l6.823,9.138v8.691H95.033a5.716,5.716,0,0,1-1.731,4.2,5.724,5.724,0,0,1-4.2,1.73,5.711,5.711,0,0,1-4.2-1.73,5.725,5.725,0,0,1-1.726-4.2H69.283a5.713,5.713,0,0,1-1.731,4.2A5.73,5.73,0,0,1,63.349-748.2Zm0-3.168a2.666,2.666,0,0,0,1.961-.8,2.667,2.667,0,0,0,.8-1.961,2.669,2.669,0,0,0-.8-1.962,2.667,2.667,0,0,0-1.961-.8,2.669,2.669,0,0,0-1.962.8,2.669,2.669,0,0,0-.8,1.962,2.667,2.667,0,0,0,.8,1.961A2.668,2.668,0,0,0,63.354-751.367Zm-6.336-5.93h1.527a5.615,5.615,0,0,1,1.947-1.968,5.3,5.3,0,0,1,2.862-.794,5.377,5.377,0,0,1,2.841.784,5.433,5.433,0,0,1,1.968,1.978H83.254v-19.535H57.667a.621.621,0,0,0-.447.2.621.621,0,0,0-.2.447Zm32.085,5.93a2.666,2.666,0,0,0,1.961-.8,2.666,2.666,0,0,0,.8-1.961,2.668,2.668,0,0,0-.8-1.962,2.667,2.667,0,0,0-1.961-.8,2.669,2.669,0,0,0-1.962.8,2.669,2.669,0,0,0-.8,1.962,2.667,2.667,0,0,0,.8,1.961A2.668,2.668,0,0,0,89.1-751.367Zm-2.681-10.154h9.463L90.4-768.79h-3.98ZM70.136-767.064Z" transform="translate(-53.85 780)" fill="#bffe2f"/>
</svg>
