<svg xmlns="http://www.w3.org/2000/svg" width="31.824" height="40.188" viewBox="0 0 31.824 40.188">
  <path id="security_24dp_75FB4C_FILL0_wght300_GRAD0_opsz24" d="M195.912-818.272a20.492,20.492,0,0,1-11.4-8.1A23.149,23.149,0,0,1,180-840.3V-852.5l15.912-5.957,15.912,5.957V-840.3a23.149,23.149,0,0,1-4.515,13.921A20.492,20.492,0,0,1,195.912-818.272Zm0-3.354a16.592,16.592,0,0,0,8.593-6.285,20.945,20.945,0,0,0,4.031-10.475H195.912v-16.688l-12.73,4.753v10.959a5.628,5.628,0,0,0,.106.975h12.624Z" transform="translate(-180 858.46)" fill="#bffe2f"/>
</svg>
