<?xml version="1.0" encoding="UTF-8"?>
<svg id="Layer_1" xmlns="http://www.w3.org/2000/svg" version="1.1" viewBox="0 0 800 800">
  <!-- Generator: Adobe Illustrator 29.6.1, SVG Export Plug-In . SVG Version: 2.1.1 Build 9)  -->
  <defs>
    <style>
      .st0 {
        fill: #0428ce;
      }
    </style>
  </defs>
  <path class="st0" d="M595.8,585.5c-27.3,0-53.4-10.8-72.7-30.1l-105-105c-7.7-7.3-19.8-7.3-27.6,0l-105.4,105.4c-19.2,19.3-45.4,30.2-72.7,30.1h-20.7l133,133c41.5,41.5,108.9,41.5,150.3,0l133.3-133.4h-12.7,0ZM212.5,214.1c27.5,0,53.3,10.7,72.7,30.1l105.4,105.4c7.6,7.6,20,7.6,27.6,0,0,0,0,0,0,0l105-105c19.2-19.3,45.4-30.2,72.7-30.1h12.7l-133.4-133.3c-41.5-41.5-108.8-41.5-150.3,0l-133,133h20.7Z"/>
  <path class="st0" d="M718.8,324.8l-80.6-80.6c-1.8.7-3.7,1.1-5.7,1.1h-36.6c-18.9,0-37.5,7.7-50.9,21.1l-105,105c-19.6,19.7-51.4,19.8-71.1.2,0,0-.1-.1-.2-.2l-105.4-105.4c-13.5-13.5-31.8-21.1-50.9-21.1h-45c-1.9,0-3.7-.4-5.4-1l-80.9,80.9c-41.5,41.5-41.5,108.9,0,150.4l80.9,80.9c1.7-.7,3.5-1.1,5.4-1.1h45c19,0,37.5-7.6,50.9-21.1l105.3-105.4c20-19,51.3-19,71.3,0l105,105c13.4,13.4,31.9,21,50.9,21h36.6c2,0,4,.5,5.7,1.2l80.6-80.6c41.5-41.5,41.5-108.9,0-150.4h0Z"/>
</svg>